<?xml version="1.0" standalone="no"?><svg xmlns="http://www.w3.org/2000/svg" viewBox="0 0 1440 320"><path fill="#654b38" fill-opacity="1" d="M0,224L30,197.3C60,171,120,117,180,80C240,43,300,21,360,32C420,43,480,85,540,96C600,107,660,85,720,117.3C780,149,840,235,900,250.7C960,267,1020,213,1080,170.7C1140,128,1200,96,1260,80C1320,64,1380,64,1410,64L1440,64L1440,320L1410,320C1380,320,1320,320,1260,320C1200,320,1140,320,1080,320C1020,320,960,320,900,320C840,320,780,320,720,320C660,320,600,320,540,320C480,320,420,320,360,320C300,320,240,320,180,320C120,320,60,320,30,320L0,320Z"></path></svg>