<?xml version="1.0" standalone="no"?><svg xmlns="http://www.w3.org/2000/svg" viewBox="0 0 1440 320"><path fill="#654b38" fill-opacity="1" d="M0,224L30,218.7C60,213,120,203,180,197.3C240,192,300,192,360,160C420,128,480,64,540,48C600,32,660,64,720,85.3C780,107,840,117,900,122.7C960,128,1020,128,1080,106.7C1140,85,1200,43,1260,32C1320,21,1380,43,1410,53.3L1440,64L1440,320L1410,320C1380,320,1320,320,1260,320C1200,320,1140,320,1080,320C1020,320,960,320,900,320C840,320,780,320,720,320C660,320,600,320,540,320C480,320,420,320,360,320C300,320,240,320,180,320C120,320,60,320,30,320L0,320Z"></path></svg>