<?xml version="1.0" standalone="no"?><svg xmlns="http://www.w3.org/2000/svg" viewBox="0 0 1440 320"><path fill="#654b38" fill-opacity="1" d="M0,96L30,90.7C60,85,120,75,180,64C240,53,300,43,360,58.7C420,75,480,117,540,122.7C600,128,660,96,720,101.3C780,107,840,149,900,176C960,203,1020,213,1080,229.3C1140,245,1200,267,1260,229.3C1320,192,1380,96,1410,48L1440,0L1440,320L1410,320C1380,320,1320,320,1260,320C1200,320,1140,320,1080,320C1020,320,960,320,900,320C840,320,780,320,720,320C660,320,600,320,540,320C480,320,420,320,360,320C300,320,240,320,180,320C120,320,60,320,30,320L0,320Z"></path></svg>